<svg xmlns="http://www.w3.org/2000/svg" xmlns:xlink="http://www.w3.org/1999/xlink" width="500" zoomAndPan="magnify" viewBox="0 0 375 112.499997" height="150" preserveAspectRatio="xMidYMid meet" version="1.0"><defs><g/><clipPath id="2c52d9542e"><path d="M 0.828125 0 L 374.167969 0 L 374.167969 112.003906 L 0.828125 112.003906 Z M 0.828125 0 " clip-rule="nonzero"/></clipPath><clipPath id="7b0b520ad7"><path d="M 0.828125 0 L 373.421875 0 L 373.421875 112 L 0.828125 112 Z M 0.828125 0 " clip-rule="nonzero"/></clipPath><clipPath id="c581241f13"><path d="M 12.03125 14.304688 L 162.539062 14.304688 L 162.539062 97.695312 L 12.03125 97.695312 Z M 12.03125 14.304688 " clip-rule="nonzero"/></clipPath></defs><g clip-path="url(#2c52d9542e)"><path fill="#ffffff" d="M 0.828125 0 L 374.171875 0 L 374.171875 119.46875 L 0.828125 119.46875 Z M 0.828125 0 " fill-opacity="1" fill-rule="nonzero"/><path fill="#ffffff" d="M 0.828125 0 L 374.171875 0 L 374.171875 112.003906 L 0.828125 112.003906 Z M 0.828125 0 " fill-opacity="1" fill-rule="nonzero"/><path fill="#ffffff" d="M 0.828125 0 L 374.171875 0 L 374.171875 112.003906 L 0.828125 112.003906 Z M 0.828125 0 " fill-opacity="1" fill-rule="nonzero"/></g><g clip-path="url(#7b0b520ad7)"><path stroke-linecap="butt" transform="matrix(0.746144, 0, 0, 0.746681, 0.829651, 0.000337919)" fill="none" stroke-linejoin="miter" d="M -0.00204584 -0.000452561 L 499.356998 -0.000452561 L 499.356998 149.996595 L -0.00204584 149.996595 L -0.00204584 -0.000452561 " stroke="#000000" stroke-width="2" stroke-opacity="1" stroke-miterlimit="4"/></g><g clip-path="url(#c581241f13)"><path fill="#000000" d="M 12.03125 14.304688 L 162.785156 14.304688 L 162.785156 98.550781 L 12.03125 98.550781 Z M 12.03125 14.304688 " fill-opacity="1" fill-rule="nonzero"/></g><g fill="#ffffff" fill-opacity="1"><g transform="translate(47.567853, 73.548114)"><g><path d="M 5.503906 0 L 10.25 0 L 10.25 -28.921875 L 22.769531 -10.035156 L 26.652344 -10.035156 L 39.171875 -28.867188 L 39.171875 0 L 43.917969 0 L 43.917969 -37.769531 L 39.496094 -37.769531 L 24.765625 -15.378906 L 9.929688 -37.769531 L 5.503906 -37.769531 Z M 5.503906 0 "/></g></g></g><g fill="#ffffff" fill-opacity="1"><g transform="translate(101.084921, 73.548114)"><g><path d="M 2.375 0 L 7.769531 0 C 16.457031 0 20.503906 -4.964844 20.503906 -12.464844 L 20.503906 -37.769531 L 15.753906 -37.769531 L 15.753906 -12.734375 C 15.753906 -7.714844 13.8125 -4.53125 7.769531 -4.53125 L 2.375 -4.53125 Z M 2.375 0 "/></g></g></g><g fill="#000000" fill-opacity="1"><g transform="translate(168.675004, 72.054752)"><g><path d="M 3.683594 0 L 27.972656 0 L 27.972656 -9.308594 L 13.738281 -9.308594 L 13.738281 -34.839844 L 3.683594 -34.839844 Z M 3.683594 0 "/></g></g></g><g fill="#000000" fill-opacity="1"><g transform="translate(197.89061, 72.054752)"><g><path d="M 3.683594 0 L 13.738281 0 L 13.738281 -34.839844 L 3.683594 -34.839844 Z M 3.683594 0 "/></g></g></g><g fill="#000000" fill-opacity="1"><g transform="translate(215.310482, 72.054752)"><g><path d="M 3.683594 0 L 13.636719 0 L 13.636719 -17.769531 L 26.878906 0 L 35.039062 0 L 35.039062 -34.839844 L 25.136719 -34.839844 L 25.136719 -17.171875 L 11.894531 -34.839844 L 3.683594 -34.839844 Z M 3.683594 0 "/></g></g></g><g fill="#000000" fill-opacity="1"><g transform="translate(254.082131, 72.054752)"><g><path d="M 0.25 0 L 10.902344 0 L 12.792969 -4.925781 L 24.6875 -4.925781 L 26.578125 0 L 37.28125 0 L 23.742188 -34.839844 L 13.789062 -34.839844 Z M 14.882812 -12.292969 L 18.765625 -23.09375 L 22.648438 -12.292969 Z M 14.882812 -12.292969 "/></g></g></g><g fill="#000000" fill-opacity="1"><g transform="translate(291.609512, 72.054752)"><g><path d="M 3.683594 0 L 13.636719 0 L 13.636719 -17.769531 L 26.878906 0 L 35.039062 0 L 35.039062 -34.839844 L 25.136719 -34.839844 L 25.136719 -17.171875 L 11.894531 -34.839844 L 3.683594 -34.839844 Z M 3.683594 0 "/></g></g></g><g fill="#000000" fill-opacity="1"><g transform="translate(330.381161, 72.054752)"><g><path d="M 3.683594 0 L 28.121094 0 L 28.121094 -8.210938 L 13.636719 -8.210938 L 13.636719 -13.589844 L 26.230469 -13.589844 L 26.230469 -21.652344 L 13.636719 -21.652344 L 13.636719 -26.730469 L 27.574219 -26.730469 L 27.574219 -34.839844 L 3.683594 -34.839844 Z M 3.683594 0 "/></g></g></g></svg>